# xmcd CD database file
#
# Track frame offsets:
#	150
#	19363
#	34594
#	58931
#	72359
#	87495
#	101596
#	118718
#	131390
#	150910
#	169176
#	184668
#	197125
#	219378
#	236118
#	260803
#
# Disc length: 3702 seconds
#
# Revision: 0
# Processed by: cddbd v1.5.2PL0 Copyright (c) Steve Scherf et al.
# Submitted via: CDex 1.70beta2
#
DISCID=e60e7410
DTITLE=Various Artist - Ultimate Grammy Collection: Contemporary Country
DYEAR=2008
DGENRE=Country
TTITLE0=Vince Gill - When I Call Your Name
TTITLE1=Mary Chapin Carpenter - Down At The Twist And Shout
TTITLE2=The Judds - Love Can Build A Bridge
TTITLE3=Brooks and Dunn - Hard Workin' Man
TTITLE4=Dwight Yoakam - Ain't That Lonely Yet
TTITLE5=Asleep At The Wheel, Lyle Lovett - Blues For Dixie
TTITLE6=The Mavericks - Here Comes The Rain
TTITLE7=LeAnn Rimes - Blue
TTITLE8=Alison Krauss - Looking In The Eyes Of Love
TTITLE9=Trisha Yearwood - How Do I Live
TTITLE10=George Jones - Choices
TTITLE11=June Carter Cash - Keep On The Sunny Side
TTITLE12=Tim McGraw - Live Like You Were Dying
TTITLE13=Gretchen Wilson - Redneck Woman
TTITLE14=Emmylou Harris - The Connection
TTITLE15=Carie Underwood - Jesus, Take The Wheel
EXTD=YEAR: 2008
EXTT0=
EXTT1=
EXTT2=
EXTT3=
EXTT4=
EXTT5=
EXTT6=
EXTT7=
EXTT8=
EXTT9=
EXTT10=
EXTT11=
EXTT12=
EXTT13=
EXTT14=
EXTT15=
PLAYORDER=
